<svg width="155" height="155" viewBox="0 0 155 155" fill="none" xmlns="http://www.w3.org/2000/svg">
<path d="M139.863 0H15.1367C6.77694 0 0 6.77694 0 15.1367V139.863C0 148.223 6.77694 155 15.1367 155H139.863C148.223 155 155 148.223 155 139.863V15.1367C155 6.77694 148.223 0 139.863 0Z" fill="#FF6B00"/>
<path d="M36.0859 141.125V72.8104H50.4922V129.163H78.05V141.125H36.0859Z" fill="white"/>
<path d="M115.692 102.762H142.646V138.181C139.083 139.365 135.381 140.315 131.539 141.031C127.697 141.716 123.345 142.059 118.481 142.059C111.727 142.059 105.995 140.72 101.286 138.041C96.5768 135.362 92.9985 131.405 90.551 126.172C88.1035 120.939 86.8797 114.506 86.8797 106.874C86.8797 99.7093 88.2429 93.5102 90.9692 88.2768C93.7265 83.0435 97.7386 78.9938 103.005 76.1279C108.303 73.262 114.763 71.8291 122.384 71.8291C125.978 71.8291 129.525 72.2185 133.026 72.9973C136.527 73.776 139.703 74.7884 142.553 76.0345L137.766 87.6227C135.691 86.5635 133.321 85.6757 130.656 84.9593C127.992 84.2428 125.203 83.8846 122.291 83.8846C118.109 83.8846 114.468 84.8502 111.37 86.7816C108.303 88.713 105.918 91.4231 104.214 94.912C102.541 98.3698 101.704 102.451 101.704 107.154C101.704 111.609 102.308 115.565 103.517 119.023C104.725 122.45 106.63 125.144 109.233 127.107C111.835 129.038 115.228 130.004 119.41 130.004C121.455 130.004 123.174 129.91 124.568 129.723C125.994 129.505 127.326 129.287 128.565 129.069V114.818H115.692V102.762Z" fill="white"/>
</svg>
