<svg width="80" height="80" viewBox="0 0 80 80" fill="none" xmlns="http://www.w3.org/2000/svg">
<path d="M80 40C80 62.0914 62.0914 80 40 80C17.9086 80 0 62.0914 0 40C0 17.9086 17.9086 0 40 0C62.0914 0 80 17.9086 80 40Z" fill="#6EA644"/>
<path d="M41 16L74 40L41 64L8 40L41 16Z" fill="#FFDB44"/>
<path d="M55 40C55 47.732 48.732 54 41 54C33.268 54 27 47.732 27 40C27 32.268 33.268 26 41 26C48.732 26 55 32.268 55 40Z" fill="#0051B5"/>
<path d="M28.3473 34C27.4834 35.8185 27 37.8528 27 40C41.4 37.6 49.7501 44.6667 52.1252 48.5C53.5455 46.6439 54.5118 44.4219 54.8582 42C46.8582 34 33.8509 33.3333 28.3473 34Z" fill="white"/>
</svg>
